<?xml version="1.0" encoding="UTF-8" standalone="no"?>
<svg
   xmlns:dc="http://purl.org/dc/elements/1.1/"
   xmlns:cc="http://creativecommons.org/ns#"
   xmlns:rdf="http://www.w3.org/1999/02/22-rdf-syntax-ns#"
   xmlns:svg="http://www.w3.org/2000/svg"
   xmlns="http://www.w3.org/2000/svg"
   xmlns:xlink="http://www.w3.org/1999/xlink"
   xmlns:sodipodi="http://sodipodi.sourceforge.net/DTD/sodipodi-0.dtd"
   xmlns:inkscape="http://www.inkscape.org/namespaces/inkscape"
   width="851.34857"
   height="499.99023"
   viewBox="0 0 61.297097 35.999297"
   id="svg2"
   version="1.1"
   inkscape:version="0.91 r13725"
   sodipodi:docname="Flag-map_of_Honduras.svg">
  <metadata
     id="metadata29">
    <rdf:RDF>
      <cc:Work
         rdf:about="">
        <dc:format>image/svg+xml</dc:format>
        <dc:type
           rdf:resource="http://purl.org/dc/dcmitype/StillImage" />
        <dc:title></dc:title>
      </cc:Work>
    </rdf:RDF>
  </metadata>
  <defs
     id="defs27" />
  <sodipodi:namedview
     pagecolor="#ffffff"
     bordercolor="#666666"
     borderopacity="1"
     objecttolerance="10"
     gridtolerance="10"
     guidetolerance="10"
     inkscape:pageopacity="0"
     inkscape:pageshadow="2"
     inkscape:window-width="1600"
     inkscape:window-height="837"
     id="namedview25"
     showgrid="false"
     fit-margin-top="0"
     fit-margin-left="0"
     fit-margin-right="0"
     fit-margin-bottom="0"
     inkscape:zoom="1.0076756"
     inkscape:cx="594.30962"
     inkscape:cy="204.46612"
     inkscape:window-x="-8"
     inkscape:window-y="-8"
     inkscape:window-maximized="1"
     inkscape:current-layer="svg2" />
  <path
     inkscape:connector-curvature="0"
     style="fill:#ffffff;fill-opacity:1;stroke:#0073cf;stroke-width:0.108;stroke-miterlimit:4;stroke-dasharray:none;stroke-opacity:1"
     d="m 6.6417113,11.999209 -1.545609,0.968203 -1.385438,1.140468 -1.643484,0.611438 -0.158203,0.234141 -0.12361,0.123609 0.04978,0.171282 -0.110532,0.268874 0.268875,0.197298 -0.171281,0.366328 -0.134437,0.381656 -0.318657,0.195187 -0.08676,0.381516 0.563765,0.771891 0.02602,0.268874 0.158203,0.197297 0.197297,0.123609 -0.08677,0.329485 -0.134437,0.160453 0.07383,0.171282 -0.03684,0.221202 0.01294,0.368578 -0.147375,0.158204 -0.307969,-0.03684 -0.221063,-0.04978 -0.255937,0.02602 -0.04978,0.110532 -0.02391,0.147374 -0.20812505,0.1215 -0.284062,0.318657 -0.110531,0.147515 -0.06075,0.123469 -0.331735,0.08466 0.01308,0.492187 0.405421,0.09745 0.171282,-0.02377 0.39248405,0.268876 0.342562,0.08663 0.529032,0.232031 0.503015,0.134438 0.392344,0.184218 0.281953,0 0.195047,0.09759 0.07369,0.234141 0.02391,0.281953 0.320906,0.147375 0.145266,0.342563 0.258047,0.281953 0.331734,0.173391 0.318656,-0.02602 0.144,0.190968 34.1177347,0 0.0065,-0.01941 0.184219,-0.255796 0.02391,-0.221204 0.344672,-0.331734 0.305719,-0.09759 0.171281,0.06075 0.0997,-0.09759 0.429328,0.09759 0.490078,-0.01308 0.304875,-0.500766 -0.255797,-0.136546 -0.03684,-0.195188 -0.173391,-0.197297 -0.06075,-0.208125 -0.09759,-0.01294 0.147375,-0.208125 0.18436,-0.392484 0.01083,-0.416251 0.331734,-0.09759 0.04992,-0.516093 0,-0.379407 0.221063,-0.08677 0.195187,0.258047 0.305719,-0.03684 0.29489,-0.184219 0.110532,-0.331734 0.03684,-0.329625 -0.244969,-0.0997 0.03684,-0.171282 0.158204,-0.01083 0.03698,-0.344812 0.65039,-0.53986 0.318657,-0.03684 0.03684,-0.258046 0.221204,-0.281812 0.479109,0.01308 0.110672,-0.12361 0.3555,-0.01083 0.134437,0.147375 0.134438,0.268875 0.270984,0.171281 0.07383,0.576703 0.366328,0.258047 0.06286,0.195047 0.219094,-0.208125 0.147374,0.160453 0.331735,0.02391 0.526922,0.134438 0.455203,0.06286 0.01083,0.147374 0.18436,-0.01294 0.09759,0.195048 0.331735,0 0.02377,-0.158204 0.221203,0.02377 0.258048,-0.134296 0.01294,-0.160454 0.329626,-0.268875 0.136546,-0.23414 0.208126,0.0997 -0.110532,0.134437 0.208126,0.147375 0.195187,-0.09759 0.173391,0.158344 0.195187,0.03684 0.171281,-0.12136 -0.1215,-0.576844 0.379406,-0.307828 0.12361,0.04992 -0.08677,0.171282 0.392484,0.23414 0.442266,0 0.18436,-0.197296 0.29264,0.08677 -0.218953,-0.60286 0.305719,-0.03684 0.110531,0.07369 -0.07369,0.247219 0.379406,-0.12361 0.04992,0.232032 0.268874,0.03684 0.147376,-0.145266 0.221202,0.145266 0.66347,-0.30572 0.281812,0.06075 0.379406,-0.07369 0.12361,-0.219094 0.195187,0.06075 0.29475,-0.23414 0.208265,0.0997 0.09745,-0.247078 0.331734,-0.145266 0.197297,-0.258046 0.466171,-0.110532 0.292782,0.04767 0.197297,-0.392484 0.318656,-0.04767 0.08676,-0.281812 0.18211,-0.04992 0.0997,-0.379407 0.255797,-0.234141 0.197438,0.07369 0.195046,0.208126 0.147516,-0.03684 0.07369,-0.110532 0.23414,-0.01083 0.134438,-0.221203 0.379406,0.06075 0.147375,0.08663 0.626625,0.03698 0.184359,0.09745 0.342563,0.08677 0.305718,-0.147376 0.247078,0.08452 0.310079,-0.0585 -0.242859,0.0173 0.307968,-0.07369 0.0086,-0.09549 -0.335953,0 -0.394776,-0.12135 -0.431438,-0.223313 -0.403313,-0.333843 -0.192936,-0.227672 -0.166922,-0.333985 -0.0021,-0.0042 -0.2385,-0.728578 -0.279703,-0.453093 -0.07594,0.188578 -0.368578,0.02602 -0.06933,0.04781 -0.02826,0.153843 0.063,-0.101812 0.09745,-0.08466 -0.160452,0.186469 -0.03023,0.158343 -0.130078,0.01955 -0.05428,0.05414 -0.164812,-0.0044 -0.04767,0.12586 -0.0997,0.08241 0.01955,0.223312 -0.03473,-0.225562 0.117141,-0.101953 0.03684,-0.106172 0.162563,-0.0021 0.08241,-0.06497 0.101953,-0.0066 0.06061,-0.318657 0.07594,-0.04992 0.277453,-0.01083 0.0087,-0.0042 0.01955,0 0.04331,-0.02602 0.02602,-0.01097 0.0021,-0.0042 0.0087,-0.0065 0.03037,-0.141046 -0.03249,-0.05203 -0.0065,-0.0021 -0.0066,-0.01083 -0.17564,-0.09098 -0.05203,-0.02166 -0.06286,-0.03262 -0.138656,-0.04978 -0.216844,-0.08888 -0.368578,-0.1215 -1.31175,-0.433546 -0.128532,-0.0713 -0.174515,0 0.469969,0.234 0.550687,0.151735 0.02827,0.0758 0.03248,0.01519 -0.0021,0.01308 -0.0044,0.0173 -0.01083,-0.0021 0.0066,0.01955 -0.03473,0.145266 -0.02827,-0.07158 -0.02602,0.03248 -0.0585,-0.04767 -0.04556,0.05639 -0.108422,-0.03037 -0.0585,0.01955 -0.03037,-0.0997 -0.07805,0.04331 -0.108422,-0.04978 -0.03248,0.01294 -0.09534,-0.02391 -0.0044,0.0021 -0.0042,-0.0021 -0.01083,0.0066 -0.06075,0.02377 -0.05428,-0.05203 -0.03023,0.0044 -0.0044,-0.0021 -0.0044,0.0042 -0.04106,0.0066 0,0.0021 -0.05428,0.08016 0.03909,0.11925 -0.03473,0.112781 -0.134437,0.09534 -0.0997,-0.0065 -0.03037,0.108422 -0.188578,0.02166 -0.136688,0.09113 -0.05625,0.127828 -0.0021,0.192937 -0.147515,0.06075 -0.0758,-0.02377 0.01294,0.03684 0.07369,-0.0044 -0.08663,0.03038 -0.06947,0.106172 0.02166,-0.0758 -0.0412,-0.05428 0.05203,-0.0021 0.02827,-0.06286 -0.18211,-0.06497 -0.0065,0.08016 0.02602,-0.01519 0.01083,0.0412 -0.09112,-0.01519 0,0.05639 -0.01083,-0.108422 -0.0087,0.125719 -0.08241,-0.04767 -0.01083,-0.06933 0.06286,-0.04767 -0.09534,-0.229922 0.09534,-0.130078 0.01519,-0.134437 -0.02602,-0.08888 -0.06933,-0.06722 0,-0.0021 -0.0044,-0.0065 -0.01083,-0.0065 -0.0021,-0.0021 -0.05414,-0.05414 -0.0173,0.0021 -0.0218,-0.01519 -0.06933,0.02377 0.01519,0.04767 -0.06286,0.04556 -0.136687,0.01083 -0.117,0.06511 0,-0.0044 -0.03909,0.0021 0.0066,-0.02602 0.04767,-0.06933 0.190828,-0.112782 0.03249,-0.08676 -0.223313,-0.125719 -0.09759,-0.151734 -0.03473,0.02812 -0.06286,-0.04978 -0.201657,0 -0.158203,-0.09774 -0.04556,-0.02812 -0.09745,-0.129937 -1.273218,0 0.0069,0.0128 0.03909,0.01955 -0.03262,0.0044 -0.02067,-0.0367 -0.09689,0 0.04613,0.09956 -0.0087,0.08016 -0.08241,0.0585 -0.134437,-0.08016 -0.03037,0 0.01519,-0.0044 -0.0021,-0.04767 -0.251437,0.01744 -0.221203,-0.101954 -0.01772,-0.02152 -45.0652487,0 z m 49.1180607,0 0.06005,0.06272 0.07805,-0.03038 0.08241,0.130079 0.145265,-0.03249 -0.02166,-0.06075 0.125719,0.04767 -0.06286,-0.0065 -0.03684,0.09534 0.03248,0.06511 0.09323,0.03037 0.03038,-0.03909 0.03037,0.02812 0.02377,-0.04978 0.0803,0.0173 -0.04556,0.04556 -0.201656,0.0044 0.208125,0.05203 0.03909,0.0758 0.114891,-0.03248 0.04556,-0.09323 0.117,-0.02166 -0.277458,-0.0997 -0.334969,-0.188437 -0.325687,0 z m -3.203437,0.03811 2.88e-4,0 0.101813,0.04978 0.268874,-0.0042 0.09759,0.09534 0.06497,-0.04767 0.195187,0.121359 0.42061,0.07158 0.09759,0.04992 0.05414,0.130078 -0.01941,0 0.02812,0.02166 0.01519,0.03684 0.03248,0.01083 0,0.0021 0.02827,0.0087 0.0021,0.0021 0.05203,0.0412 0.08452,0.0042 0.268876,0.18225 -0.03248,0.07805 -0.04992,0.09534 -0.461813,0.08241 -0.277594,0.108422 -0.07369,-0.0087 -0.08016,-0.01955 -0.04767,-0.04331 -0.101954,-0.11714 -0.09548,-0.06061 -0.132188,-0.1215 0.0021,-0.08888 0.0021,-0.0065 0.0412,0.03038 0.02166,-0.04345 -0.05414,-0.11489 0.153844,0.0021 -0.03248,-0.06497 0.01308,-0.0066 0.06061,0.01083 -0.0042,-0.0412 0.112641,-0.0086 -0.140906,-0.01744 -0.327375,0.07594 -0.0412,0.0042 -0.24061,-0.02812 -0.03909,-0.0065 -0.04978,-0.184078 0.08227,-0.281813 z m -0.446485,0.136548 -0.02166,0.03473 0.0044,-0.03038 0.0173,-0.0044 z m 5.06025,0.301358 2.88e-4,0 0.06075,0.02827 0.0021,0 0.002,0.0021 0.12797,0.05414 0.04331,0.06497 -0.02377,0.07383 -0.0585,0.0042 -0.02827,-0.0585 -0.07805,0.03473 0.01744,-0.07158 -0.0066,-0.02166 0.0021,-0.0065 -0.0087,-0.01308 0,-0.0021 -0.01519,-0.05203 -0.0173,-0.0021 -0.01955,-0.03473 z m 0.04359,0.223313 0.04556,0.03909 -0.0087,0.07369 0.140906,0.05203 0.01308,0.112781 0.24061,0.182109 0.07369,0.158204 -0.104063,0.08466 -0.114891,0.02377 -0.05414,-0.01294 -0.07369,-0.08241 -0.281953,0.0087 0.0044,0.0087 -0.01308,0 0.03263,0.04978 -0.04781,-0.03037 0.0044,-0.0173 0.01294,-0.0173 0.145266,-0.03037 -0.07144,-0.192937 0.140906,-0.164813 0.09099,-0.0021 0.0021,-0.06511 -0.147374,-0.05414 0,-0.07369 -0.03473,-0.03038 0.0044,-0.01955 1.44e-4,-1.44e-4 z m -0.669937,0.394594 0.173531,0.06722 0.08663,0.04556 0.156093,0.175641 0.04992,0.145265 0.08016,-0.01744 0.01744,-0.01294 0.05203,-0.0173 -0.0065,-0.01955 0.0042,-0.0021 0.01083,0.0173 -0.09534,0.08887 -0.03473,0.169172 -0.234141,0.166922 -0.136547,0.0087 -0.09323,-0.0997 -0.0412,-0.140906 0.01083,-0.206016 0.0173,-0.08241 -0.01294,-0.0042 0,-0.01519 -0.03473,0.0042 0.0044,0.0803 -0.114891,0.07805 0.03023,0.210234 -0.0412,0.07805 -0.101812,0.0044 -0.02166,-0.134437 0.05203,-0.218953 0.164672,-0.05428 -0.04542,-0.11925 0.104063,-0.195047 0,-1.44e-4 z m -1.253109,0.585421 -0.02827,0.112782 -0.07158,-0.06075 0.09984,-0.05203 z"
     id="rect6-2"
     clip-path="none" />
  <path
     inkscape:connector-curvature="0"
     id="rect4"
     d="M 34.429218,0 34.3395,0.0748125 34.352156,0.18857812 34.23136,0.12473438 34.149797,0.15075 34.022672,0.351 l -0.08156,0.004781 0.02194,0.0504844 -0.08564,0.0894375 -0.0089,0.16396875 -0.155109,-0.0167344 -0.06975,0.25889066 -0.13275,0.27168745 0.09619,-0.036562 0.133453,-0.1368282 0.297844,-0.18885938 -0.15989,-0.0565312 -0.02475,-0.0555469 0.161156,0.0748125 0.266344,-0.16495314 0.107718,0.0199687 -0.04472,0.0345938 0.07383,-0.0129375 0.118968,-0.15946875 -0.03164,-0.0291094 0.01533,-0.0871875 -0.07988,-0.0585 0.152438,0.0230625 0.221062,-0.0819844 0.03192,-0.0684844 -0.06806,-0.0399375 0.0031,-0.066375 -0.08705,0.05779687 -0.176203,-0.0250313 0.0765,-0.03614062 L 34.578986,0.02053124 34.429218,0 Z m -2.832186,0.71479688 -0.136688,0.0603281 -0.08606,0.11039062 0.02489,0.0253125 0.176625,-0.0757969 0.06525,0.0545625 L 31.825406,0.729 31.597032,0.71479688 Z M 31.184156,0.83475 l -0.02208,0.0421875 -0.0073,-1.44e-4 0,0.005344 -0.0024,0 0,0.005484 0.0024,0 0,0.003375 -0.0093,0.0175782 0.06933,0.0122343 0.01083,-0.0752343 -0.04148,-0.0108282 z m -0.883688,0.0428906 -0.299671,0.0424688 -0.07889,-0.0264375 -0.0025,0.0374063 -0.0083,0.003516 -0.246938,0.04275 -0.04753,0.0447187 -0.05766,-0.04275 0,1.44e-4 -0.02911,0.0409219 -0.32864,0.102375 -0.04359,0.054141 -0.02292,0.00113 -0.02419,-0.00506 0.0091,-0.030797 0,-1.44e-4 -0.09211,0.055547 0.0051,0.00169 -0.0051,0.00337 0.03009,0.00548 -0.03558,0.036844 -0.194765,0.052594 -0.118266,0.115875 -0.115875,0.040641 -0.123609,-0.030937 -0.220781,0.1368282 -0.09999,-0.01575 0.01828,0.042187 -0.192093,0.1132032 -0.01378,5.616e-4 -0.194626,0.00591 -0.0037,0.00211 -0.0011,0 -0.0049,0.00323 -0.257626,0.1403438 -0.218812,0.172125 0.02095,0.038531 -0.06441,-0.0135 -0.01041,0.091266 -0.02306,-0.04725 -0.02981,0.031641 9.86e-4,0.1815469 -0.06848,0.2503125 0.3645,-0.3002343 0.08887,-0.1123594 0.07045,-0.065812 0.03122,-0.00225 0.01181,0.013078 0.0094,-0.014625 0.131906,-0.00928 -0.02194,0.027984 0.20039,-0.1025156 0.04936,0.012797 0,-1.44e-4 0.104344,-0.1065937 -0.0031,0.1077188 1.44e-4,0 0.0077,0.00267 0.02236,0.00788 0,-1.44e-4 -0.01673,-0.046125 0.01434,0.031641 0.0042,-0.00113 8.43e-4,0.00113 0.0053,-0.00295 0.06722,-0.019125 5.76e-4,-0.018844 0.01406,-0.00788 -0.01055,-0.098859 0.09999,-0.00366 0,-1.44e-4 0.144984,-0.1712812 0.02602,0.055406 0,1.44e-4 0.05934,-0.031641 -0.0405,-0.021375 0.04458,-0.036844 0.01041,0.027844 0.09998,-0.0315 0,-1.44e-4 0.04472,-0.088312 0.05245,0.029109 -0.01828,0.043734 0.123328,-0.011531 0,-1.44e-4 4.32e-4,-0.106875 0.0063,0.091125 0.04584,0.00942 0.04233,-0.1016719 0,0.047531 0.10125,-0.018422 -0.03558,-0.033187 0.11039,0.0405 0,-1.44e-4 0.06075,-0.088453 -0.01969,-0.087328 0.05653,0.058219 0.07383,-0.042047 -0.0578,-0.058219 0.04219,-0.055547 0.0495,0.1058906 0.06103,-0.1715625 0.018,0.1402031 0.06328,-0.020953 0.0315,-0.010688 -0.04711,0.015469 0.04303,-0.033609 0,-1.44e-4 -0.0038,-0.082266 0.0367,0.094219 0.08986,-0.06975 0.03375,0.048938 -0.02841,-0.1072969 0.03684,-0.085641 0.0084,0.1704375 0.138234,0.00703 0.04233,-0.1039218 0.184078,-0.033891 0.02124,-0.081984 0.249328,0.064266 -0.02883,-0.018563 0.03741,-0.073969 0.08944,-0.0341718 -0.0017,-0.008297 0.0044,-0.00225 -0.0065,-0.007172 -0.0041,-0.0192656 -0.02391,-0.0115313 -0.04683,-0.0520312 -0.04978,0.004782 -0.02362,-0.0116718 -1.44e-4,0 z m 0.791298,0.007032 -0.305016,0.0462657 0.05259,0.0241875 -0.036,0.13120311 -0.01448,-0.044297 0.0077,0.068906 0.06905,-0.028547 0,-0.019969 0.159892,-0.11207804 0.131906,-0.00211 -0.06567,-0.0635625 z m -0.09802,0.13710936 0.01589,0.058219 0.03558,-0.031359 -0.05147,-0.026859 z m -0.81239,0.1134844 0.05498,0.046406 0.02672,-0.025031 -0.0817,-0.021375 z m -5.988516,2.8988438 -0.07073,0.027562 0.05527,0.00267 -0.03178,0.063281 -0.04444,0.00788 0,-0.068484 -0.04978,0.047391 -0.0817,-0.015891 0.03966,0.053156 -0.08395,-0.034453 -0.01336,0.031359 -0.0063,-0.034172 0.05892,-0.018703 -0.136547,-0.045984 -0.0945,0.064687 0.04205,0.036984 -0.04205,0.052734 -0.120657,0.036703 -0.01055,-0.036703 0.04205,0.00773 -0.03417,-0.035438 -0.103641,0.054141 -0.02756,0.036984 -0.102235,-0.00127 -0.07622,0.06975 -0.01603,0.1240312 0.186329,0.05175 -0.0049,-0.086062 0.063,0.00548 -0.05259,0.07425 0.03656,0.076078 0.120656,0 0.36225,-0.1539843 -0.08381,0.00633 0.01195,-0.047391 0.08494,-0.034172 0.02911,-0.1427344 0.01336,0.063422 0.08901,0.023766 -0.09717,0.084234 0.160172,-0.081562 0.04402,0.029391 -0.01786,0.062719 0.05245,0.014906 0.06806,-0.056953 -0.01406,-0.071016 0.0017,-0.010828 0.0862,-0.079031 0.01701,-0.092531 -0.054,-0.052734 -0.193922,-0.00928 -1.44e-4,0 z m -0.1575,0.3391874 -0.03952,0.054141 0.02236,-0.00942 0.01716,-0.044719 z m 8.988328,0.634922 -0.09534,0.010828 -0.02166,0.047672 0.17986,0.064969 0.141046,0.1215 0.11264,-0.00436 0.06722,-0.045562 -0.04978,-0.015188 0.04978,-0.010828 0.11714,0.036844 0.147375,-0.032484 0.136687,0.045562 0.0997,0.2168438 -0.01955,0.1842188 -0.0997,0.2472187 0.06722,-0.00872 0.114891,-0.1321876 0.02166,-0.089016 0.153984,-0.097453 -0.0044,-0.063 -0.04331,0.017437 0.03249,-0.1387969 0.104062,-0.054141 0.08241,-0.00661 0.0021,0.049922 -0.156094,0.1105312 0.138797,-0.049781 0.03895,-0.073687 0.106313,-0.023906 0.385874,0.1517344 0.0044,0.11925 -0.153984,0.010828 -0.06286,0.1452657 0.09098,-0.00211 -0.0173,0.041203 -0.08887,-0.032625 -0.09759,0.1302187 -0.206016,0.049781 -0.312187,-0.2406094 -0.0021,0.073688 -0.06497,0.062859 0.0173,-0.041203 -0.06286,0.082406 -0.08887,0.00872 -0.02166,0.00211 -0.208125,0.2081251 -0.130078,0.021656 -0.318797,0.1648125 -0.752343,0.069469 -0.448735,-0.023906 -0.09112,-0.043313 -0.0087,0.00647 -0.01519,-0.00436 -0.05203,0.062859 -0.29925,0.1019532 -0.179859,0 -0.203765,0.073687 -0.212485,0.099703 -0.232031,0.2624062 -0.08452,0.015188 -0.07594,0.1452657 -0.125719,0.056391 -0.125859,0.1257188 -0.127829,0.038953 0.03249,0.043453 -0.04556,-0.041203 -0.301359,0.064969 -0.08016,0.065109 -0.05203,0.00858 -0.04992,0.073829 -0.0585,0.047671 -0.04345,0.015188 -0.05203,0.00211 -0.257907,-0.0585 -0.104063,0.080156 -0.09984,0.00661 -0.249328,-0.082406 -0.440157,-0.2688753 -0.0042,0.034734 -0.01308,-0.039094 -0.108422,-0.030375 -0.414,0.1063122 -0.405562,0.05639 0,0.00211 -0.153844,0.021656 -0.431438,0.00647 -0.310078,0.095484 -0.607078,-0.026016 -0.251578,-0.06075 -0.02166,-0.041203 -0.0042,0.1040631 -0.0021,-0.093234 -0.147516,-0.028125 -0.429187,0.2709842 0.01505,0.017297 -0.04542,-0.00436 -0.153984,0.080297 -0.472641,0.028266 -0.160453,0.095344 -0.47911,-0.06075 0.002,0.00436 -0.381516,-0.075938 -0.275343,-0.1040623 0.0412,0.019547 0.112781,0.049922 0.07144,0.1821096 -0.04978,0.045562 -0.0065,-0.1410466 -0.08466,0.028265 0.08887,-0.036843 -0.03459,-0.080297 -0.09759,-0.047672 -0.331735,-0.00872 -0.453234,-0.1105315 0.143156,0.1105315 0.09759,0.00872 -0.08241,0.00436 -0.290532,-0.093234 0.134438,0.00647 -0.02602,-0.043312 -0.279703,-0.00872 -0.927984,-0.1538432 -0.01294,0.060609 -0.173531,-0.021656 0.01308,0.06511 -0.01955,-0.080297 0.151735,0.019547 0.03473,-0.043312 -1.019109,-0.3079689 0.04781,0.043453 -0.548578,-0.1972969 -0.101953,0.1712812 0.06511,0.1061719 -0.07158,-0.1019531 -0.186469,0.1604531 -0.277452,0.013078 -0.01744,0.1169999 -0.216844,0.1951877 0.0021,0.00436 -0.318657,0.00647 -0.325265,-0.1105315 -0.0021,0.06286 0.164813,0.1279685 -0.203766,-0.1323281 0.03895,-0.064968 -0.244968,-0.1410473 -0.42061,-0.359859 0.288422,0.2709844 0.0042,0.080297 -0.02602,0.028125 -0.04992,-0.0585 -0.112641,-0.030375 -0.0997,-0.073687 0.01083,-0.073688 -0.05639,-0.036844 -0.09112,0.043312 0.04556,0.064969 0.114891,0.075937 0.353391,0.390234 0.398952,0.1084219 -0.186468,-0.00211 -0.130078,-0.071578 -0.17775,0.038953 -0.221204,-0.012938 -0.01955,-0.1171404 -0.04106,0.00872 -0.03263,-0.073688 -0.06061,0.023766 -0.0218,0.095484 -0.149484,-0.023906 -0.06722,0.069469 -0.110672,0.019406 -0.05414,-0.043312 0.114891,-0.2168438 -0.03037,-0.2102342 0.125718,-0.149625 0.05428,-0.1517344 -0.0021,0.049781 0.136548,-0.015188 -0.02377,-0.1213593 0.11264,0.1019531 -0.286172,-0.3339844 -0.09534,-0.2233125 0.01294,0.1300781 0.09548,0.11925 -0.02391,0.017297 -0.11489,-0.1733906 -0.03037,0.023906 0.02166,0.1278281 -0.04978,-0.021656 -0.03909,0.062859 -0.132188,-0.1213594 0.07144,-0.1279687 -0.104062,0.084656 0.02602,-0.039094 -0.164672,-0.043312 -0.433688,-0.2493282 -0.09323,0.0585 0.0087,0.1452657 -0.01308,-0.015187 0,-0.1387969 0.05428,-0.052031 -0.07805,-0.019547 -0.106312,0.093234 0.106312,0.00225 -0.01308,0.1213594 0,-0.1084218 -0.09323,-0.00436 -0.09534,0.1431562 0.09759,-0.00436 -0.08466,0.071578 -0.04542,0.00211 0.02602,-0.069328 -0.171282,0.030375 -0.221203,-0.047672 -0.07805,0.099703 0.114891,0.1040626 -0.0173,0.036844 0.0065,-0.038953 -0.04556,-0.00225 -0.07369,-0.099703 -0.04331,0.1365469 -0.11714,0.086766 0.11925,-0.108422 0.01308,-0.069328 -0.03909,-0.017438 0.125719,-0.088875 -0.02166,-0.047672 -0.190828,-0.023906 -0.208124,0.036844 -0.123469,0.084656 -0.232031,0.00858 -0.346922,0.2645156 -0.455344,-0.00858 -0.08452,0.086625 -0.02827,0.1084218 0.268876,0.047813 0.06511,0.1257187 -0.01955,-0.130078 0.173391,-0.1756407 0.164813,-0.00872 -0.03249,0.065109 -0.0021,0.00436 0.07158,-0.054281 -0.125719,0.2536876 -0.09984,0.039094 -0.07805,-0.047813 -0.01083,0.080297 -0.06933,-0.028266 -0.11714,0.188719 -0.173391,0.073687 -0.125719,-0.00211 -0.03263,0.062859 -0.164672,0.086625 -0.251578,0.019546 0,-0.00211 -0.07369,0.00647 -0.104063,0.00872 -0.0021,0.00211 -0.0173,0.00225 -0.01955,0.05625 -0.02827,-0.032484 0.03262,-0.021656 -0.05639,0.019547 0.0087,0.1105315 0.03038,0.00211 -0.03038,0 -0.03262,0.106313 -0.257906,0.1300781 -0.06511,0.134437 -0.140906,0.026016 -0.01083,0.012938 -0.0044,0 -0.01294,0.019547 -0.06722,0.080297 -0.0044,0.032484 -0.01083,0.017297 0.0065,0.030375 -0.0042,0.028266 0.0065,-0.00661 0.0021,0.00872 0.04331,-0.032485 0.01083,0.064969 -0.134298,0.1648123 -0.286312,0.1019527 -0.01083,-0.00225 -0.216703,-0.071579 -0.54,-0.35775 0.09112,0.067219 -0.106172,-0.06286 -0.136688,0.015188 -0.101812,0.2688747 -0.66136,0.2449692 -0.123609,0.4185 -2.2071092,1.8277028 -0.06075,0.171281 -0.3446719,0.1215 -0.698203,0.711141 -0.1607344,0.100687 45.0652495,0 -0.175218,-0.212765 -0.164813,-0.309938 0,-0.09112 0.1215,0.0065 0.01294,-0.06722 -0.132188,-0.09323 0.04542,-0.0021 -0.02602,-0.06061 0.125859,-0.04992 0.03459,0.03038 -0.0412,-0.01955 0,0.03038 0.09548,0.01955 0.110531,-0.08466 -0.04992,-0.253547 -0.06061,-0.02601 0.05203,0.08451 -0.101953,-0.143156 0.0021,-0.125719 0.03684,0.04992 0.07594,-0.0087 -0.06511,0.01083 0.06511,0.03684 0.101813,-0.0087 -0.07369,-0.04767 0.132328,0.01083 0.07369,-0.132188 0.121359,0.05203 0.0087,-0.115031 0.11925,-0.06497 0.145265,-0.249328 -0.114891,-0.01519 0.134438,-0.01083 0.121359,0.0997 0.130079,-0.0021 0.136687,0.127969 0.262265,0.08451 0.108422,-0.05414 0.01083,-0.04992 0.0412,0.12797 0.290531,0.208124 0.05864,0.24061 -0.132328,-0.05414 0.132328,0.125719 0.262265,0.04992 0.140907,-0.03263 0.221202,0.117141 0.24286,0.03473 0.307828,0.171281 0.297,0.270985 0.04992,-0.01519 0.130078,0.08452 0.05203,-0.01941 0.01955,0.04767 0.0044,-0.05639 0.08888,0.03684 0.11025,-0.162562 -0.83475,-0.277594 -0.735047,-0.463922 -0.95611,-0.8260307 -1.220765,-1.1664849 -1.864547,-1.5546089 0.151734,0.1843589 -0.08887,0.1126411 0.104062,0.1366869 -0.01294,0.021657 -0.09984,-0.1604534 0.08676,-0.1084219 -0.199406,-0.2363904 -1.435359,-0.1126407 -0.244969,-0.032625 -1.658672,-0.35775 -0.05414,0.021797 0.693702,0.147375 0.06075,0.039094 0.487829,0.075797 0.0412,0.041203 -0.08241,-0.028125 0.0803,0.093234 0.04978,-0.032625 -0.03248,0.06075 0.158202,0.00225 -0.01941,0.060609 0.127828,-0.064969 -0.0412,0.056391 0.11714,-0.041203 -0.09323,0.043312 0.09759,0.045562 -0.03473,0.097593 -0.110531,-0.1387965 -0.06511,0.00436 -0.02812,0.056391 0.03037,0.071438 -0.08466,-0.026016 -0.0758,0.1150316 -0.09323,-0.023907 0.08016,-0.075937 -0.05639,-0.034594 -0.140906,0.1712808 0.06933,0.030235 0.02616,0.082406 -0.138796,0.010828 0.08452,0.067219 0.08241,0 -0.08677,0.026016 -0.17339,-0.099703 0.05203,0.073688 -0.03248,0.043453 -0.03473,-0.030375 0,0.090984 -0.03248,-0.093234 0.03459,-0.052031 -0.05414,-0.034594 -0.23414,0.019547 -0.138797,-0.2255624 -0.08241,0.013078 -0.0087,0.069328 0.0021,-0.071578 0.07594,-0.010828 -0.0065,-0.038953 -0.162703,-0.097594 -0.02812,0.056391 0.06286,0.2189527 -0.09323,0.099703 -0.147375,0.071578 -0.164812,-0.080296 -0.156094,-0.2579069 -0.0087,-0.1171406 0.0021,0 0.0065,-0.023906 0.03684,-0.043312 0.02602,-0.2276719 0.01083,-0.049781 0.12797,-0.1258593 -0.06722,-0.067219 -0.0044,0 -0.0086,-0.00858 -0.416391,-0.054281 -1.094906,-0.3446719 -0.730688,-0.29925 -0.318656,-0.1864687 0.02602,0.080297 0.143156,0.028125 0.08888,0.091125 -0.09759,0.015188 -0.03909,-0.032625 -0.0585,0.088875 -0.188578,0.00872 0.02812,0.043313 0.134438,0.023906 0.03909,0.062859 -0.01308,0.00225 -0.04556,-0.065109 -0.140907,-0.026016 -0.0087,-0.054141 0.197297,-0.00436 0.03909,-0.084656 0.08676,0.013078 -0.02391,-0.069328 -0.156094,-0.032625 -0.04992,-0.095344 -0.0412,0.041203 0.0412,0.00436 -0.0758,0.00858 -0.130078,-0.060609 -0.04556,0.095344 0.06497,0.054281 0.01519,0.1538438 -0.0758,-0.00211 0.03895,-0.010828 0.01744,-0.101953 -0.08241,-0.1171407 -0.08676,0.091125 -0.0021,0.1063125 -0.0065,0.00211 0.0065,-0.082406 -0.06075,0.039094 0.101953,-0.1215 -0.03684,-0.032484 0.05639,0.012937 0.02602,-0.093234 -0.221204,-0.11925 -0.01294,0.036984 -0.03909,-0.030375 0.01308,-0.028266 0.01294,0.034734 0.02602,-0.013078 0.02827,-0.015047 0.3555,0.1690312 0.09112,-0.028125 -0.889031,-0.2861718 0.03684,0.026016 -0.112641,0.021656 -0.115031,0.325125 -0.0042,-0.00422 0.0758,-0.2428593 0.0218,-0.06075 0.01083,-0.019547 0.04331,-0.023766 0.0412,-0.00436 -0.02391,-0.00647 0.01955,-0.010828 -0.07805,-0.00225 -0.04556,-0.010828 -0.08452,0.00647 -0.147375,-0.00436 -0.05203,0.019547 -0.07805,0.00647 -0.342563,0.1560938 -0.735046,0.5897812 -0.409782,0.18 -0.59414,0.1300781 -0.431438,0.036844 0,-0.00872 -0.695953,-0.017297 -0.09759,0.017297 -0.03249,0 -0.242859,0.049922 -0.143016,0.1019531 -0.227672,0.028125 -0.323016,-0.047672 -0.871594,-0.3230156 -0.0021,0 -0.06075,-0.030375 -0.106172,-0.054281 -0.845578,-0.5182032 0.03248,0.058641 -0.06286,-0.078187 L 35.712549,5.6007793 34.418096,5.2255919 33.02408,5.0088887 33.023648,5.0081831 Z m -4.619532,0.4986562 -0.152015,0.031359 0.05766,0.018703 -0.0031,0.073688 0.03923,0.030656 0.07523,-0.1175624 -0.01688,-0.036844 -1.44e-4,0 z m 14.454282,0.015187 0.06286,0.00211 0.01519,0.084516 -0.02602,0.028266 -0.09534,-0.032484 0.0997,0.023766 0.01083,-0.067219 -0.06722,-0.038953 z m -0.05639,0.080156 0.0044,0 0.0065,0.095344 -0.06497,0.065109 0.03684,0.041203 -0.0412,-0.043312 0.06061,-0.063 -0.0021,-0.095344 z m -7.126594,0.00211 0.04767,0.015187 -0.06511,0.091125 -0.01955,-0.019547 0.06075,0.071578 -0.01083,0.056391 -0.07369,0.041203 0.07369,-0.095484 -0.110531,0.023906 -0.01744,0.049922 0,-0.047813 -0.05203,-0.030234 -0.01519,0.11925 -0.06286,0.028125 -0.05203,0.1300781 0.04345,-0.1365468 0.06061,-0.021656 0.0087,-0.1236093 0.112782,0.00647 0.0087,-0.088875 0.08016,-0.030375 -0.0173,-0.039094 z m -7.55761,0.041625 -0.03136,0.079312 -0.04472,-0.00563 -0.0055,0.029109 0.0945,0.034594 -0.01294,-0.1373906 z m 15.881062,0.3356718 0.372938,0.1279688 0.08016,0.082406 0.503016,0.1257188 0.101953,0.052031 0,0.00647 0.240609,0.1431562 0.0021,0.023766 -0.0087,0.039094 -0.04978,0.034734 0.03248,0.062859 -0.108422,0.1517343 -0.05639,0.015187 -0.260156,0.010828 -0.02602,0.049922 -0.04556,-0.015188 0.0044,0.054141 -0.0585,-0.012938 -0.0412,0.0585 -0.138797,-0.030375 -0.08452,-0.1409062 -0.07383,0.015188 -0.04767,-0.1756407 0.02826,-0.015187 -0.130078,-0.1084219 0.08662,-0.099703 -0.05639,0.00872 -0.03895,-0.043453 0.101953,0.015187 0.04978,-0.086766 -0.07158,-0.030234 0.117141,-0.017437 -0.223313,-0.1126406 0.169032,0.062859 0.05639,-0.036844 -0.0585,-0.013078 -0.01519,-0.071578 -0.35325,-0.1300782 z m -0.35339,0.1887188 -0.02602,0.067219 0.0087,-0.065109 0.0173,-0.00211 z m -0.04556,0.117 -0.0065,0.015187 -0.0803,0.028266 0.08677,-0.043453 z m -27.496406,0.084516 0.03459,0.030375 -0.01294,0.06075 -0.05428,0.026016 -0.01519,-0.015188 0.05428,-0.00872 0.01294,-0.067078 -0.01941,-0.026156 z m 27.197156,0.069469 -0.02377,0.019547 -0.11489,0.010828 0.0042,0.047672 0.02166,0.015188 -0.03248,-0.00647 0.0065,-0.056391 0,-0.00872 0.112782,-0.00872 0.02602,-0.012937 z m -27.18422,0.1105312 0.03473,0.034734 -0.06947,0.010828 0.03473,-0.045562 z m 27.110532,0.00872 0.03248,0.021656 -0.01941,0.047672 -0.11925,0.036844 -0.12586,-0.038953 0.0066,0.1344375 -0.0066,0 -0.164671,0.034594 0.0412,-0.036844 0.123468,0.00225 -0.02812,-0.099844 0.02812,-0.041062 0.106314,0.032484 0.140906,-0.039094 -0.01519,-0.054141 z m -28.84289,0.1648124 0.0021,0 -0.03473,0.038953 0.03262,-0.038953 z m 28.346343,0.028125 0.01519,0.00647 -0.08452,0.058641 -0.0065,0.060609 0.0021,-0.064969 0.07369,-0.06075 z m -28.641235,0.3252656 0.06947,0 0.0065,0.030375 -0.07594,-0.030375 z m 34.016064,0.034594 1.44e-4,0 0.303468,0.032625 0.117141,0.06061 -0.06511,0.019547 -0.06286,-0.067219 -0.0997,-0.00647 -0.1215,-0.019547 0.07158,0.056391 0.0044,0.052031 -0.06511,0.032484 -0.0412,-0.1169999 -0.0412,0.1192499 -0.06497,-0.1279686 0,-0.030375 0.06497,-0.00436 z M 21.7125,7.4342822 l 0.162562,0.05864 0.01519,0.075797 -0.03038,-0.075797 -0.03248,0.036844 -0.11489,-0.095484 z m -3.000797,0.078047 0.02602,0.052032 -0.02377,-0.028125 -0.03249,0.038953 0.03024,-0.06286 z m 31.210594,0.2081254 -0.03909,0.05639 -0.149625,0.05639 0.01744,0.099703 -0.04345,0.2016562 -0.0087,-0.108422 0.04781,-0.099703 -0.02166,-0.097593 0.149484,-0.056391 0.04781,-0.052031 z m -26.850515,0.052031 1.44e-4,0 0.0065,0.041203 0.0021,0.00661 -0.08888,0.064969 0.03249,0.080297 -0.03895,-0.080297 0.09323,-0.071578 -0.03684,-0.028125 0.03023,-0.013078 z m -12.115548,0.487828 0.01097,0.00661 -0.04345,0.106172 0.03248,-0.1127816 z m 40.186688,0.1366877 0.03473,0 0.06061,0.1733904 -0.05203,0.017438 0.01955,0.05625 -0.05203,-0.00211 0.08241,0.06511 0.0065,0.078047 -0.114891,0.097453 0.0412,0.1475158 -0.05203,0.023766 -0.05639,-0.095344 -0.04992,0.099703 0.03037,0.043453 0.07594,0.015188 -0.08241,0.00647 -0.03248,-0.0585 0.04331,-0.1171404 0.04331,0.00211 0.02826,0.078047 0.03473,-0.019406 -0.07158,-0.2559376 0.0412,-0.015188 0.07805,0.054282 0.03684,-0.047672 -0.08887,-0.088875 0.02602,-0.1366869 -0.110672,-0.047672 0.08902,-0.039094 -0.0087,-0.034594 z m 0.730688,1.5783754 0.0412,0.065109 -0.03473,0.171281 -0.143016,0.112641 -0.145265,-0.03684 0.0322,0.03881 -0.179718,-0.11911 0.0044,-0.123469 0.160453,-0.091124 0.134438,0.026015 0.130078,-0.043312 z m -1.404985,0.00436 0.03037,0.06061 0.29925,0.138796 0.199406,-0.134437 0.158344,0.02166 0.164672,0.09549 0.08888,0.104062 0.02826,0.208125 0.12361,0.06075 -0.0044,0.02166 0,-0.01308 -0.117,-0.05203 -0.03699,-0.106172 -0.130078,-0.07594 -0.02812,-0.08451 -0.201657,-0.02391 -0.0173,0.18872 0.09323,0.11053 -0.08677,0.04767 -0.125719,0 -0.07158,0.08241 0.0087,-0.04992 -0.04345,0 -0.0086,0.05203 -0.0066,-0.04542 -0.06497,0.12136 0.03037,0.08887 -0.02826,0.01744 -0.0173,-0.127968 0.05414,-0.260157 -0.225422,-0.02391 -0.0044,-0.02812 0.06947,0.02377 -0.112781,-0.06933 0.0173,-0.112782 -0.06497,-0.08016 -0.0803,0.0021 0.110531,-0.0803 0,-0.077906 z m 1.155657,0.3469219 0.06075,0.06933 0.08016,0.03684 0.0585,-0.03248 0.01083,0.0021 -0.0997,0.05639 0.04767,0.09759 -0.108422,0.03459 0.03473,-0.101813 -0.106172,-0.06286 0.02166,-0.0997 z m 0.891702,1.080422 -0.02166,0.07383 0.08241,-0.03038 0.02813,0.123609 0.09548,0.0042 -0.117141,0.04992 -0.01294,-0.04331 -0.09984,-0.03473 0.01955,-0.06511 -0.11925,0.01744 -0.125718,0.04331 -0.02166,0.134437 0.125718,0.06722 0.03459,0.148922 -0.03895,-0.135985 -0.03024,0.06722 0.07959,0.171562 0.09689,0 -0.03558,-0.06314 -0.06722,-0.02391 -0.0044,-0.01505 0.0758,0.03037 0.03867,0.07172 1.273219,0 -0.02616,-0.03487 -0.18,-0.06511 -0.162562,-0.175642 -0.140906,-0.05625 -0.175641,-0.147516 -0.130078,-0.05639 -0.440156,-0.05639 z m 2.956922,0.05203 0.0087,0.07369 -0.0585,0.06497 0.06933,-0.03459 -0.02166,0.04556 0.04767,-0.06947 0.01083,0.156093 -0.184219,0.06075 -0.03684,0.101953 0.151734,0.04978 0.208126,-0.0042 0.09169,0.09563 0.325686,0 -0.01195,-0.0067 0.0135,0.0067 0.174656,0 -0.368156,-0.204188 -0.390234,-0.331734 -0.03038,-0.0042 z m -2.675672,0.183515 0.0173,0.08888 0.0412,-0.03459 0.07594,0.09745 -0.03684,0.0087 0.03248,0.08887 -0.04331,0.01744 -0.09759,-0.04556 0.0087,-0.104062 -0.06722,0.03684 -0.07805,-0.02166 -0.01744,-0.130078 0.09548,0.01519 0.06933,-0.01744 z m -0.448874,0.04767 0.0087,0.04345 -0.07805,-0.02602 0.06933,-0.01744 z M 4.8976875,23.999201 5.1329532,24.311107 5.33025,24.53231 l 0.4424062,0.110532 0.2687344,-0.09745 0.1712812,0.09745 0.1236094,0.429328 0.097594,0.268874 0.5897812,0.258048 0.1582032,-0.04992 0.5398591,0.23414 0.2212034,0.08677 0.4899377,0.02391 0,0.257906 0,0.342563 0.1236089,0.416391 0.084516,0.23414 0.2342816,-0.03684 0.3425623,-0.221202 0.4291877,-0.02391 0.2711246,0.110672 0.2081256,-0.197297 0.171281,0.08663 0.489937,-0.184219 0.06286,-0.379406 0.208266,-0.03684 0.366328,-0.442406 0.307968,0.09759 0.403172,-0.134438 0.626625,0.268876 0.04992,0.284062 0.208125,0.07158 0.305718,0.565875 0.442266,-0.234141 0.41625,0.09745 0.09759,-0.108282 0.552938,-0.04992 0.184218,0.08677 0.405422,-0.06286 0.53775,0.515954 0.318656,0.331734 -0.04767,0.329484 -0.23414,0.331734 0.04992,0.368579 -0.221204,0.171281 -0.02391,0.47925 -0.02377,0.392344 -0.221203,0.366468 -0.03684,0.442266 0.08452,0.221204 0.210374,-0.04992 0.292642,0.04992 0.063,0.281812 0,0.305718 -0.197298,0.07383 -0.134437,0.04978 -0.208265,-0.184218 -0.04978,0.01941 0.06933,0.01308 -0.09759,0.01955 0.0218,0.02602 -0.03474,0.02166 0.03895,0.0087 -0.05414,0.01294 -0.0412,0.08677 -0.110531,-0.0173 0.03459,0.0585 -0.03684,-0.01519 -0.03023,0.03684 0.03895,0.01519 0.0173,0.134437 -0.06061,0.03249 0.06497,-0.0173 -0.03684,0.03037 0.0412,-0.01955 0.01083,0.02813 0.0412,-0.132188 0.12572,0.0585 0.09984,-0.07369 -0.0087,0.09759 0.05414,-0.05639 0.0065,0.04331 0.08887,0.03262 0.08676,-0.06722 0.03038,0.05203 -0.04767,-0.02602 0.0087,0.06286 -0.05203,0.02377 0.0412,0.01308 -0.06511,0.01955 0.05414,0.01294 0.0044,0.06075 0.02166,-0.01955 -0.0021,0.03909 -0.0173,-0.01308 0.0042,0.0585 0.01308,-0.01941 -0.0021,0.03459 0.106172,-0.02813 0,0.06286 0.03473,0.01519 -0.02166,-0.04767 0.05203,0.02601 0.0065,0.04767 0.04767,-0.02813 -0.0065,-0.01308 0.01955,0.0044 0.02166,-0.063 0.0412,-0.002 0.0021,-0.06947 0.02602,0.06075 0.04331,-0.07369 0.01955,0.03023 0.01744,-0.104062 -0.06947,0.03698 0.01955,-0.04345 0.05203,0 0.01519,0.09549 0.01083,-0.07805 0.114891,-0.01955 -0.0042,-0.06947 -0.06947,-0.08016 -0.0021,0.03909 -0.08016,0.03248 -0.06286,-0.04767 0.05414,0.02812 0.06511,-0.11714 -0.05639,0.01097 0.03037,-0.09759 0.03895,0.03248 0.03473,-0.03037 -0.03037,-0.09759 -0.110531,0.0044 0.149625,-0.02827 0.05625,0.07383 0.0066,-0.07594 0.03895,-0.0065 -0.08452,-0.1215 0.04556,-0.06061 0.02377,0.02602 0.05203,-0.0412 0.04781,0.01955 0,-0.0412 0.11925,0.0173 -0.04556,-0.0585 -0.05428,0.01083 -0.02377,-0.149625 -0.125859,-0.0021 0.134437,-0.01955 0.04992,0.06286 0.132328,-0.07144 0.04767,0.03023 0.03895,-0.06286 0.03037,0.123609 0.0065,-0.06075 0.106313,0.01083 0.05639,-0.03895 0.01519,0.0412 -0.063,0.0021 0.03037,0.04556 -0.03248,0.02377 0.03248,-0.0087 0.03262,0.09548 -0.063,0.03248 0.07594,0.02602 0.02166,-0.06511 0.04556,0.06511 -0.04767,0.0087 0.06286,0.0412 0.07158,-0.0021 0.01294,-0.09759 0.03684,0.0087 0.01308,-0.0412 0.06497,0.06075 0.03262,-0.101953 0.01941,0.101953 0.06075,0.01083 0.0044,-0.143156 0.04767,-0.05203 -0.0044,0.06497 0.0803,0.01519 -0.04767,0.01744 0.0412,0.03248 -0.063,-0.01519 0.01083,0.03684 -0.05203,0.01083 -0.03895,0.08677 0.06933,-0.03909 0.08888,0.02391 0.0218,-0.03684 0.01505,0.03248 0.04781,-0.04331 -0.03037,0.05414 0.04331,0.01744 -0.0585,-0.0066 -0.02602,0.05864 0,-0.06511 -0.08677,0.06947 -0.05414,-0.04556 0.02377,0.02377 -0.05414,0.0044 0.03473,0.02812 -0.01744,0.03909 0.0412,-0.03248 -0.03248,0.06722 -0.0173,-0.05428 -0.05639,-0.01294 -0.07383,0.04331 -0.02377,-0.01519 -0.01308,0.0173 -0.0087,-0.03459 -0.002,0.06722 -0.0044,-0.08241 -0.03037,0.02813 0.03248,0.06722 -0.03684,0.0173 0.09112,0.01308 -0.02826,0.04767 0.0412,0.01519 -0.05639,-0.0021 0.0087,0.05203 0.04556,-0.0173 -0.05203,0.06933 0.02166,0.05428 -0.03459,-0.01744 0.04978,0.04781 -0.03038,0.01083 0.03909,0.0021 0.06286,-0.138798 -0.03473,0.134438 0.03909,0.03684 0.06722,-0.06947 -0.02827,0.153985 0.07158,-0.08241 -0.02166,0.17789 0.03037,0.04542 0.04331,-0.0412 0.0021,0.06722 -0.08676,0.01083 0.05203,0.05428 -0.02602,0.0173 0.03684,-0.01519 -0.03023,0.04767 0.09098,-0.09323 -0.01519,0.09323 0.04556,-0.0173 0.0173,-0.0758 0.03909,0.03459 -0.02602,-0.04978 0.04331,0.01519 -0.01955,-0.07819 0.03263,-0.03684 0.06722,0.108422 0.0412,-0.175641 0.05625,-0.0021 0.01308,0.04556 -0.07805,0 -0.0044,0.145265 0.05864,-0.05203 0.06497,0.07594 0.01744,-0.1215 0.09098,0.08241 0.03248,-0.130078 0.0412,0.01955 -0.02602,0.03248 0.04345,0.06286 0.03024,-0.06061 -0.0412,-0.04556 0.136688,0.06933 0.125719,-0.06722 -0.03249,-0.03895 -0.0803,0.04542 -0.09534,-0.138656 0.117,0.11925 0.0412,-0.04992 -0.05414,-0.0087 -0.0065,-0.09759 0.03684,0.08241 0.130078,-0.0021 -0.11925,-0.101812 0.06286,-0.0803 -0.06497,-0.03459 0.03895,0.0173 0.0173,-0.0412 0.01308,0.04767 0.12136,-0.04331 -0.03459,0.08677 0.01519,0.01519 -0.0021,0.01083 0.01083,-0.0021 0.01294,0.01083 0.0803,-0.02166 0.0042,-0.01519 0.03684,-0.0087 0.0218,-0.06722 0.04331,0.106172 -0.0412,0.0412 0.03684,-0.01519 0.106312,0.06722 -0.0021,-0.0042 0.0065,0.0042 -0.03684,-0.04767 0.02602,-0.04556 0.04978,0.02827 -0.0021,-0.05864 0.03699,0.03263 -0.03262,0.09759 0.0218,0.02166 0.0086,0.0087 0.0044,-0.127969 0.03909,0.06497 0.05414,-0.01083 -0.03037,-0.104063 -0.04556,-0.01941 0.05203,-0.01744 0.08902,0.07369 0.01505,-0.03024 0.104203,0.05625 0.06497,-0.01505 0.106313,0.07805 -0.0021,0.04767 0.08016,-0.03262 0.01955,0.03698 0.0412,-0.06075 -0.02602,0.08452 0.01294,0.0065 -0.0021,0.01097 0.0065,-0.0066 0.01744,0.0087 0.0021,-0.02812 0.02166,-0.02166 0.01294,0 0.0044,0.0065 0.0087,0.01519 -0.0044,0.0042 0.04345,0.04992 -0.07383,0.03473 0,0.0021 0.06511,0.02377 0,0.03037 0,0.0087 -0.0021,0 -0.06286,-0.02166 -0.07369,0.134438 0.0021,0.08887 -0.08241,0.03895 -0.01955,0.09323 -0.06511,-0.08016 -0.0758,0.02602 -0.03249,-0.03909 -0.0021,0.05428 -0.04992,-0.0087 -0.0087,0.04331 0.07158,-0.01083 -0.02391,0.08888 -0.0585,0.03248 -0.08016,-0.03459 -0.03473,0.03895 0.09323,0.101953 0.09534,-0.05639 0.07594,0.08452 -0.01308,-0.04978 0.06286,-0.01308 -0.04978,0.01744 0.0173,0.06497 -0.07158,-0.0042 0.07158,0.140906 -0.09323,0.07158 -0.03459,-0.07383 0.05203,0.0044 -0.04345,-0.06511 0.02602,-0.02813 -0.03684,-0.0021 0.01519,-0.07594 -0.04992,0.0066 0.0021,0.07369 -0.04767,-0.05203 -0.117,-0.0044 -0.01519,0.09323 0.08241,-0.03684 0.08016,0.01955 0.04767,0.07369 -0.04978,0.02812 -0.02827,-0.04978 -0.03473,0.145266 -0.160313,0 0.134297,0.09534 -0.08226,0.01083 -0.01955,-0.04978 0.02377,0.11489 -0.08887,0.0021 0.01519,0.05414 0.04992,-0.0065 0.0173,0.08677 -0.03684,-0.07158 -0.0042,0.01519 -0.0087,-0.01308 0,0.0412 -0.02826,-0.03037 -0.136547,0.01519 -0.01744,0.05203 -0.11489,0.03473 -0.0021,0 -0.02166,-0.01294 -0.02602,-0.02391 0,-0.0021 0.01083,-0.03248 -0.212485,-0.03473 -0.03459,-0.03473 0.06497,-0.06708 0.01744,0.0042 -0.01308,-0.0087 0.0065,-0.0065 -0.04331,-0.02166 -0.02391,-0.0173 -0.0042,0.002 -0.0066,-0.002 -0.05414,0.04106 0.05639,-0.06497 -0.04556,0.04992 0.03248,-0.05203 -0.11489,0.138657 -0.01083,0.05639 0.04992,-0.0042 -0.03909,-0.03037 0.138796,0.01083 0.03684,0.09098 -0.05414,-0.08241 -0.06947,0.05639 0.216844,0.08466 -0.05414,-0.09323 0.02377,-0.02602 0.05864,0.07144 -0.02602,0.02602 0.04106,0 0.0021,0.02602 0.03263,-0.0086 0.0042,0.03684 0.01744,-0.03909 0.125719,0.01519 0.117,-0.07805 -0.08663,0.08676 -0.136687,0.0065 0.01308,0.04556 0.0412,-0.01083 -0.03473,0.03684 0.02602,0.06286 -0.06722,-0.0997 -0.01294,0.04331 -0.0044,-0.0042 -0.03249,-0.04345 -0.03473,0.01308 0.01308,-0.03262 -0.05428,0.01308 0.138796,0.11925 0.151735,0.208125 0.03684,0.0021 -0.0086,-0.03909 -0.110672,-0.151735 0.110672,-0.02812 0.0585,-0.106313 0.03474,-0.01519 0.0173,-0.0021 0.03037,0.0412 -0.134437,0.130079 0.132187,-0.04542 -0.02166,0.07144 -0.06722,-0.0042 0.03038,0.04978 0.136547,-0.08887 0.01083,0.01083 0.02391,0.07594 0.04767,-0.02166 -0.0087,0.03684 0.05639,0.01519 0.02602,-0.03684 0.01744,0.0758 -0.125859,-0.03895 -0.04542,0.03473 -0.0044,0.04542 0.130078,0.08676 -0.08016,-0.0021 -0.04781,-0.05414 0.02827,0.06722 -0.02602,0.08887 0.04331,0 0.02391,-0.06286 0.08452,0.02166 -0.07158,-0.01308 -0.03684,0.09549 -0.03684,0.0065 -0.02166,-0.11925 -0.07158,-0.0087 0.03909,-0.0412 -0.01744,-0.0087 -0.0021,0 -0.01519,-0.0065 -0.03895,0.04556 0.0087,-0.04767 -0.04345,-0.02602 -0.04331,0.158204 0.03248,0.0585 0.03262,0.01955 -0.04345,-0.05203 0.03248,0.02813 0.05428,0.05428 0.0087,0 0.08016,0.223313 -0.02166,0.06497 -0.05639,-0.221063 -0.07805,-0.106312 0.229781,0.693844 -0.04978,0.370828 0.06286,-0.143157 0.132187,-0.0087 0.08901,0.05203 0.110532,-0.04992 0.260156,0.141047 0.08241,-0.0044 0.132188,0.06722 0.0087,0.03909 -0.273094,0.0997 0.127829,0.225422 0.07158,0.0803 0.01955,0.03037 0.132188,0.140906 0.106312,0.06061 0.125718,0.05639 0.270985,-0.03895 0.01083,0.03248 -0.17775,0.08241 -0.127969,0.288282 2.502141,-0.0997 0.123047,0.157641 0.0027,0 0.253688,-0.08395 -0.01083,-0.110532 0.29489,-0.221062 0.366328,-0.171282 0.04992,-0.307968 0.379406,-0.281812 -0.195187,-0.355641 0.208265,-0.257907 -0.221202,-0.245108 0.147374,-0.231892 0.08677,-0.405562 0.392484,-0.318656 0.440156,-0.208125 0.563626,0.184219 0.197296,0.18225 0.490078,-0.329626 -0.03684,-0.687234 -0.305719,-0.123609 -0.01308,-0.221203 0.208125,-0.366469 -0.231891,-0.479109 0,-0.550688 -0.208266,-0.442266 0.1215,-0.41639 -0.268874,-0.381516 0.07369,-0.956109 0.477,-0.258047 0.565874,0.03684 0.134438,0.06075 0.318796,-0.09759 0.318657,0.01294 0.208125,-0.110532 0.392484,-0.04992 0.160454,0.234282 0.366328,0.02377 0.147515,-0.134438 0.234141,0.208124 0.318656,-0.06061 0.60061,0.06061 0.258046,-0.244968 0.147376,-0.318656 0.04781,-0.24511 0.221062,-0.281812 0.221204,-0.110532 0.07369,-0.160452 0.221203,-0.09759 0,-0.18436 0.221062,-0.195046 0.1215,-0.355641 0.221063,0.01083 0.232031,-0.244969 0.08677,-0.331734 0.58964,-0.342562 0.195188,0.09759 0.18436,-0.147375 0.184218,0.134438 0,0.0997 -0.208125,0.231892 0.03684,0.197296 0.466171,0.416391 0.403314,0.234141 0.197296,0.318656 0.281812,-0.08663 0.318798,0.04978 0.17128,0.429328 0.368579,0.329484 0.158203,-0.01083 0.210375,-0.08662 0.231891,-0.01308 -0.01294,-0.232032 -0.244968,-0.184218 0.11053,-0.821814 0.24497,-0.08451 0.197296,-0.160453 0.232032,0.12361 0.134437,-0.06286 0.04978,-0.221203 0.379547,-0.01083 0.270985,-0.258046 0.268874,-0.208125 0.331735,0.07383 0.221063,-0.02616 0.123608,-0.268734 0.342564,-0.184359 0.09759,-0.147375 0.197297,0.06286 0.255796,-0.160454 0.110672,-0.258046 0.06722,-0.201657 -34.1175944,0 z m 11.5115625,6.978937 0.06497,0.07158 -0.04556,-0.01083 0,0.03684 -0.04542,-0.04542 0.05203,-0.01744 -0.06722,-0.01955 0.0412,-0.01519 z m 0.09984,0.1125 0.14639,0.121922 -0.04528,-0.05189 -0.02334,-0.06497 -0.07777,-0.0051 z m 1.0665,0.253969 0.11714,0.04556 -0.06511,-0.0173 -0.08016,0 0.02813,-0.02827 z m -0.04331,0.04331 0.01519,0.06947 -0.03248,-0.05203 0.0173,-0.01744 z m -0.226548,0.149062 -0.03361,0.01055 0.02095,0.09112 0.01266,-0.101672 z m 0.738282,0.0353 0.0997,0.04992 -0.08241,-0.01083 -0.0173,-0.03909 z m 0.864,0.105047 0.08845,0.0623 0.02574,-0.0128 -0.114187,-0.0495 z m -0.98536,0.02306 0.03459,0.04317 -0.03037,0 -0.0042,-0.04317 z m -1.856109,0.0713 1.44e-4,0 0.03895,0.01744 -0.03037,0 -0.0087,-0.01744 z m 0.327515,1.44e-4 -0.0803,0.0077 0.0803,0.01927 0,-0.027 z m 2.296548,0.07003 0,1.44e-4 0.0082,0.127547 0.09577,0.02869 0.0128,-0.04964 -0.04528,-0.03825 -0.07144,-0.06848 z m -2.548126,0.008 -0.02602,0.02812 -0.0087,-0.02166 0.03473,-0.0065 z m 1.755,0.01209 -0.01941,0.06272 0.04556,0.03361 -0.02616,-0.09633 z m 0.18436,0.05414 -0.07959,0.03164 0.02756,0.02461 1.44e-4,0 0.05695,-0.02222 -0.0051,-0.03403 z m -0.07959,0.03164 -0.03206,-0.02855 0.02869,0.02981 0.0034,-0.0013 z m 0.797344,-0.02742 0.08072,0.04402 0.02559,-0.03389 -0.02827,-0.0079 -0.07805,-0.0022 z m -1.275047,0.04922 -4.32e-4,2.88e-4 4.32e-4,-1.44e-4 0,-1.44e-4 z m -4.32e-4,2.88e-4 -0.08733,0.0263 -0.150468,0.131765 -0.279844,0.02039 -0.06187,0.0027 0.027,-0.06778 -0.06356,-0.0079 0.03108,-0.02334 -0.02841,-0.02095 -0.05189,0.0027 -0.01786,0.140907 -0.113906,-0.02813 -0.0027,0.07552 0.05723,0.03628 -0.09084,0.03417 0.02644,0.156516 0.124594,0.08297 0.01561,0.06272 0.161015,0.07523 0.10125,0.02306 0.06005,-0.05667 0.03037,0.04064 0.168328,-0.06033 0.04402,0.0547 -0.03614,-0.01027 -0.0093,0.0367 0.08311,-0.0082 0.0022,-0.122625 0.05189,-0.02869 0.0065,-0.06005 -0.04162,-0.02616 0.02053,-0.0443 -0.06455,0.04697 -0.03263,-0.02827 0.08409,-0.08789 -0.04373,-0.03769 0.02813,0.02376 0.03108,-0.02376 -0.08001,-0.01772 -0.01856,-0.01603 -0.06876,0.03698 0.01969,-0.03389 -0.06005,-0.05991 -0.0053,-0.08114 0.235124,-0.159328 z m 1.819828,0.03277 -1.44e-4,7.2e-4 2.88e-4,-7.2e-4 -1.44e-4,0 z m -1.44e-4,7.2e-4 -0.01,0.0308 -0.02869,-0.02883 0.0315,0.05358 0.0072,-0.05555 z m -1.295578,0.03319 -0.01294,0.09478 0.05836,-0.0065 0.02236,0.05077 0.111094,-0.04191 -0.01294,-0.05358 -0.163125,0.02137 0.05808,-0.0315 -0.06075,-0.03347 -1.44e-4,0 z m 0.381094,0.04598 -0.05695,0.0367 0.02588,0.01828 0.0623,0.04936 0.0051,-0.006 0,0.006 0.03248,-0.0443 -0.06876,-0.06005 z m -2.441109,0.0034 -0.02348,0.0457 -0.0803,-0.0063 -0.01786,0.06792 0.191812,-0.02939 -0.06483,-0.01533 -0.0053,-0.06258 z m 1.81125,0.03558 -0.02574,0.08733 0.03769,0.02109 -0.0013,-0.04303 0.04542,0.03755 -0.02855,-0.04936 0.05555,0.03895 -0.0128,-0.05217 0.09844,-0.02883 -0.168609,-0.01153 -1.44e-4,0 z m 0.974813,0.09366 -0.05161,0.01266 0.03867,0.04584 0.01294,-0.0585 z m 0.21839,0.03684 -0.05653,0.01223 0.05358,0.02053 0.003,-0.03276 z m -0.925875,0.01378 -0.105891,0.02883 -0.05189,0.01603 0.157781,-0.04486 z m -0.235687,0.04247 -0.02489,0.05048 0.0367,-0.01167 -0.01181,-0.03881 z m -0.02489,0.05048 -0.02714,0.0087 0.02109,0.0034 0.006,-0.01195 0,-1.44e-4 z m -0.02714,0.0087 -0.04781,-0.0077 0.01167,-0.03811 -0.09028,0.04838 -0.04402,-0.03263 -0.06244,-0.01547 -0.018,0.07313 0.132187,0.01012 0.118688,-0.03769 z m 1.402312,7.2e-4 -0.0027,0.04177 0.03895,-0.03417 0,-1.44e-4 -0.03628,-0.0075 z m -3.04214,0.03023 -0.03909,0.02095 0.03952,0.06778 0.112781,-0.01603 -0.113203,-0.0727 z m 3.04214,0.04275 0.03389,0.0443 -0.01195,-0.02602 -0.02194,-0.01828 z m -2.635171,0.0135 -0.103079,0.172548 0.06736,0.100265 0.01027,-0.08761 0.09436,-0.04458 -0.06891,-0.140626 z m 2.142843,0.01758 -0.09056,0.04303 0.08831,0.0623 -0.0983,0.05259 0.08297,0.0623 -0.05442,0.0457 -0.0623,-0.08198 -0.03867,0.0079 0.114468,0.273797 -0.0066,-0.182532 0.118828,-0.08916 -0.06089,0.0315 -0.01434,-0.07833 0.05836,-0.05344 0.0412,0.05611 0.02714,-0.01575 -0.03347,-0.05189 0.03769,-0.03164 -0.145406,0.02658 0.03614,-0.07692 -1.44e-4,-1.44e-4 z m 0.142735,0.03459 0.0495,0.03656 0.0034,-9.86e-4 -0.05288,-0.03558 z m 0.111375,0.01828 -0.05836,0.0173 0.0093,0.0065 0.04908,-0.02377 z m -2.70225,0.08705 0.0027,0.03656 0.05414,-0.03417 -0.05681,-0.0024 z m 2.624062,0.157078 -0.02742,0.0218 0.0412,0.02109 -0.01378,-0.04289 z m -1.978452,0.01575 -0.165657,0.04725 -0.06708,0.190828 0.03698,0.235548 0.134858,0.02826 0.189,-0.03403 0.126704,-0.08789 0.02433,-0.122485 -0.04809,-0.04402 0.02855,-0.0578 -0.02517,-0.05991 -0.08663,0.01322 -0.147796,-0.108985 z m 2.215546,0.702 -0.0021,0.03895 0.06722,-0.03684 0.04542,0.0412 -0.130078,0.0173 0.01955,-0.06061 z m -0.01308,0.136548 -0.0065,0.06511 -0.0044,-0.0021 0.01083,-0.063 z m 0.0021,0.06722 0.07158,0.0065 -0.0412,0.0065 -0.03037,-0.01294 z m -0.147376,0.02602 0.0585,0.01083 -0.0065,0.03684 0.0087,0 0,0.03473 -0.02827,-0.03473 0.01083,0 -0.04331,-0.04767 z"
     style="fill:#0073cf" />
  <g
     style="fill:#0073cf"
     id="star"
     transform="matrix(2,0,0,2,28.7846,17.999173)">
    <g
       id="cone">
      <polygon
         id="triangle"
         points="0.5,1 0,0 0,1 "
         transform="matrix(0.95105652,0.30901699,-0.30901699,0.95105652,0,-1)" />
      <use
         height="36"
         width="72"
         y="0"
         x="0"
         xlink:href="#triangle"
         transform="scale(-1,1)"
         id="use12" />
    </g>
    <use
       height="36"
       width="72"
       y="0"
       x="0"
       xlink:href="#cone"
       transform="matrix(0.30901699,0.95105652,-0.95105652,0.30901699,0,0)"
       id="use14" />
    <use
       height="36"
       width="72"
       y="0"
       x="0"
       xlink:href="#cone"
       transform="matrix(0.30901699,-0.95105652,0.95105652,0.30901699,0,0)"
       id="use16" />
    <use
       height="36"
       width="72"
       y="0"
       x="0"
       xlink:href="#cone"
       transform="matrix(-0.80901699,0.58778525,-0.58778525,-0.80901699,0,0)"
       id="use18" />
    <use
       height="36"
       width="72"
       y="0"
       x="0"
       xlink:href="#cone"
       transform="matrix(-0.80901699,-0.58778525,0.58778525,-0.80901699,0,0)"
       id="use20" />
  </g>
  <use
     height="36"
     width="72"
     y="0"
     x="0"
     xlink:href="#star"
     transform="translate(10,-3.2)"
     id="use17" />
  <use
     height="36"
     width="72"
     y="0"
     x="0"
     xlink:href="#star"
     transform="translate(10,2.8)"
     id="use19" />
  <use
     height="36"
     width="72"
     y="0"
     x="0"
     xlink:href="#star"
     transform="translate(-10,-3.2)"
     id="use21" />
  <use
     height="36"
     width="72"
     y="0"
     x="0"
     xlink:href="#star"
     transform="translate(-10,2.8)"
     id="use23" />
  <use
     xlink:href="#glyph1-4"
     id="use5167"
     x="0"
     y="0"
     overflow="visible"
     style="overflow:visible"
     width="738"
     height="458"
     transform="matrix(0.08672609,0,0,0.08672609,-1.7239037,-1.2410096)" />
  <use
     xlink:href="#glyph2-6"
     id="use5171"
     x="0"
     y="0"
     overflow="visible"
     style="overflow:visible"
     width="738"
     height="458"
     transform="matrix(0.08672609,0,0,0.08672609,-1.7239037,-1.2410096)" />
  <use
     xlink:href="#glyph2-6"
     x="0"
     y="0"
     overflow="visible"
     id="use5175"
     style="overflow:visible"
     width="738"
     height="458"
     transform="matrix(0.08672609,0,0,0.08672609,-1.7239037,-1.2410096)" />
  <use
     xlink:href="#glyph2-6"
     x="0"
     y="0"
     overflow="visible"
     id="use5179"
     style="overflow:visible"
     width="738"
     height="458"
     transform="matrix(0.08672609,0,0,0.08672609,-1.7239037,-1.2410096)" />
  <use
     xlink:href="#glyph2-6"
     x="0"
     y="0"
     overflow="visible"
     id="use5183"
     style="overflow:visible"
     width="738"
     height="458"
     transform="matrix(0.08672609,0,0,0.08672609,-1.7239037,-1.2410096)" />
  <use
     xlink:href="#glyph2-6"
     x="0"
     y="0"
     overflow="visible"
     id="use5187"
     style="overflow:visible"
     width="738"
     height="458"
     transform="matrix(0.08672609,0,0,0.08672609,-1.7239037,-1.2410096)" />
  <use
     xlink:href="#glyph2-6"
     x="0"
     y="0"
     overflow="visible"
     id="use5191"
     style="overflow:visible"
     width="738"
     height="458"
     transform="matrix(0.08672609,0,0,0.08672609,-1.7239037,-1.2410096)" />
  <use
     xlink:href="#glyph2-6"
     x="0"
     y="0"
     overflow="visible"
     id="use5195"
     style="overflow:visible"
     width="738"
     height="458"
     transform="matrix(0.08672609,0,0,0.08672609,-1.7239037,-1.2410096)" />
  <use
     xlink:href="#glyph2-6"
     x="0"
     y="0"
     overflow="visible"
     id="use5199"
     style="overflow:visible"
     width="738"
     height="458"
     transform="matrix(0.08672609,0,0,0.08672609,-1.7239037,-1.2410096)" />
  <use
     xlink:href="#glyph2-6"
     x="0"
     y="0"
     overflow="visible"
     id="use5203"
     style="overflow:visible"
     width="738"
     height="458"
     transform="matrix(0.08672609,0,0,0.08672609,-1.7239037,-1.2410096)" />
  <use
     xlink:href="#glyph2-6"
     x="0"
     y="0"
     overflow="visible"
     id="use5207"
     style="overflow:visible"
     width="738"
     height="458"
     transform="matrix(0.08672609,0,0,0.08672609,-1.7239037,-1.2410096)" />
  <use
     xlink:href="#glyph2-6"
     x="0"
     y="0"
     overflow="visible"
     id="use5211"
     style="overflow:visible"
     width="738"
     height="458"
     transform="matrix(0.08672609,0,0,0.08672609,-1.7239037,-1.2410096)" />
  <use
     xlink:href="#glyph2-6"
     x="0"
     y="0"
     overflow="visible"
     id="use5215"
     style="overflow:visible"
     width="738"
     height="458"
     transform="matrix(0.08672609,0,0,0.08672609,-1.7239037,-1.2410096)" />
  <use
     xlink:href="#glyph2-6"
     x="0"
     y="0"
     overflow="visible"
     id="use5219"
     style="overflow:visible"
     width="738"
     height="458"
     transform="matrix(0.08672609,0,0,0.08672609,-1.7239037,-1.2410096)" />
  <use
     xlink:href="#glyph2-6"
     x="0"
     y="0"
     overflow="visible"
     id="use5223"
     style="overflow:visible"
     width="738"
     height="458"
     transform="matrix(0.08672609,0,0,0.08672609,-1.7239037,-1.2410096)" />
  <use
     xlink:href="#glyph2-6"
     x="0"
     y="0"
     overflow="visible"
     id="use5227"
     style="overflow:visible"
     width="738"
     height="458"
     transform="matrix(0.08672609,0,0,0.08672609,-1.7239037,-1.2410096)" />
  <use
     xlink:href="#glyph2-6"
     x="0"
     y="0"
     overflow="visible"
     id="use5231"
     style="overflow:visible"
     width="738"
     height="458"
     transform="matrix(0.08672609,0,0,0.08672609,-1.7239037,-1.2410096)" />
  <use
     xlink:href="#glyph2-6"
     x="0"
     y="0"
     overflow="visible"
     id="use5235"
     style="overflow:visible"
     width="738"
     height="458"
     transform="matrix(0.08672609,0,0,0.08672609,-1.7239037,-1.2410096)" />
  <use
     xlink:href="#glyph2-6"
     x="0"
     y="0"
     overflow="visible"
     id="use5239"
     style="overflow:visible"
     width="738"
     height="458"
     transform="matrix(0.08672609,0,0,0.08672609,-1.7239037,-1.2410096)" />
  <use
     xlink:href="#glyph2-6"
     x="0"
     y="0"
     overflow="visible"
     id="use5243"
     style="overflow:visible"
     width="738"
     height="458"
     transform="matrix(0.08672609,0,0,0.08672609,-1.7239037,-1.2410096)" />
  <use
     xlink:href="#glyph2-6"
     x="0"
     y="0"
     overflow="visible"
     id="use5247"
     style="overflow:visible"
     width="738"
     height="458"
     transform="matrix(0.08672609,0,0,0.08672609,-1.7239037,-1.2410096)" />
  <use
     xlink:href="#glyph2-6"
     x="0"
     y="0"
     overflow="visible"
     id="use5251"
     style="overflow:visible"
     width="738"
     height="458"
     transform="matrix(0.08672609,0,0,0.08672609,-1.7239037,-1.2410096)" />
  <use
     xlink:href="#glyph2-6"
     x="0"
     y="0"
     overflow="visible"
     id="use5255"
     style="overflow:visible"
     width="738"
     height="458"
     transform="matrix(0.08672609,0,0,0.08672609,-1.7239037,-1.2410096)" />
  <use
     xlink:href="#glyph2-6"
     x="0"
     y="0"
     overflow="visible"
     id="use5259"
     style="overflow:visible"
     width="738"
     height="458"
     transform="matrix(0.08672609,0,0,0.08672609,-1.7239037,-1.2410096)" />
</svg>
